<svg xmlns="http://www.w3.org/2000/svg" xmlns:xlink="http://www.w3.org/1999/xlink" width="512" zoomAndPan="magnify" viewBox="0 0 384 383.999986" height="512" preserveAspectRatio="xMidYMid meet" version="1.0"><defs><clipPath id="8dce25decd"><path d="M 74.210938 11 L 309.710938 11 L 309.710938 373 L 74.210938 373 Z M 74.210938 11 " clip-rule="nonzero"/></clipPath></defs><g clip-path="url(#8dce25decd)"><path fill="#000000" d="M 309.40625 142.882812 C 308.625 140.710938 308.21875 138.742188 307.730469 136.808594 C 306.84375 133.300781 306.164062 129.742188 305.226562 126.242188 C 303.902344 121.304688 301.871094 116.691406 299.144531 112.371094 C 296.765625 108.597656 294.113281 105.03125 291.246094 101.617188 C 285.457031 94.734375 278.015625 90.90625 269.203125 89.445312 C 261.117188 88.105469 253.34375 89.488281 245.652344 91.820312 C 241.492188 93.078125 237.484375 94.78125 233.363281 96.148438 C 230.808594 96.992188 228.21875 97.707031 225.527344 97.96875 C 220.285156 98.476562 215.542969 97.234375 211.507812 93.796875 C 207.320312 90.226562 205.804688 85.550781 206.289062 80.167969 C 206.660156 76.082031 208.128906 72.328125 209.988281 68.722656 C 211.199219 66.378906 212.515625 64.089844 213.769531 61.773438 C 214.582031 60.269531 215.335938 58.742188 215.804688 57.085938 C 216.648438 54.128906 215.984375 51.558594 213.8125 49.394531 C 211.375 46.964844 208.324219 45.761719 205.03125 45.074219 C 201.078125 44.257812 197.105469 44.417969 193.132812 44.902344 C 187.992188 45.53125 182.941406 46.6875 177.820312 47.402344 C 171.9375 48.222656 166.066406 48.441406 160.273438 46.773438 C 153.179688 44.730469 147.480469 40.570312 142.6875 35.074219 C 139.460938 31.375 136.972656 27.21875 135.238281 22.617188 C 135.0625 22.148438 135.007812 21.605469 134.460938 21.132812 C 134.464844 22.925781 134.816406 24.558594 135.097656 26.183594 C 136.730469 35.738281 139.652344 44.855469 144.363281 53.371094 C 148.226562 60.347656 151.628906 67.542969 154.605469 74.945312 C 155.753906 77.804688 156.347656 80.78125 156.730469 83.816406 C 157.0625 86.449219 157.097656 89.070312 156.835938 91.710938 C 156.710938 92.996094 156.683594 94.296875 156.6875 95.589844 C 156.703125 99.78125 156.539062 103.96875 156.199219 108.148438 C 156.15625 108.714844 156.128906 109.289062 156.160156 109.855469 C 156.25 111.535156 157.125 112.382812 158.828125 112.4375 C 159.976562 112.476562 161.089844 112.199219 162.207031 112.007812 C 165.011719 111.527344 167.746094 110.699219 170.59375 110.449219 C 171.78125 110.347656 172.960938 110.21875 174.144531 110.496094 C 175.90625 110.90625 177.082031 111.9375 177.613281 113.6875 C 177.972656 114.882812 178.132812 116.109375 178.191406 117.355469 C 178.269531 118.957031 178.449219 120.550781 178.777344 122.125 C 179.167969 124.003906 180.152344 125.320312 182.042969 125.894531 C 183.378906 126.300781 184.699219 126.75 186.027344 127.183594 C 188.277344 127.917969 189.152344 129.304688 188.867188 131.671875 C 188.859375 131.722656 188.847656 131.777344 188.84375 131.824219 C 188.496094 134.433594 189.183594 135.597656 191.636719 136.578125 C 192.515625 136.929688 193.4375 137.019531 194.375 137.042969 C 195.464844 137.066406 196.550781 137.074219 197.632812 137.164062 C 199.3125 137.300781 200.519531 138.191406 201.339844 139.640625 C 202.164062 141.085938 202.734375 142.640625 203.292969 144.195312 C 203.976562 146.105469 204.835938 147.921875 206.011719 149.578125 C 206.953125 150.902344 208.082031 152.035156 209.484375 152.863281 C 211.800781 154.222656 214.214844 154.570312 216.769531 153.539062 C 218.21875 152.957031 219.589844 152.25 220.933594 151.46875 C 226.761719 148.089844 232.292969 144.265625 237.753906 140.332031 C 240.453125 138.386719 243.265625 136.667969 246.425781 135.5625 C 247.84375 135.070312 249.285156 134.703125 250.773438 134.433594 C 252.796875 134.0625 254.683594 134.425781 256.519531 135.222656 C 257.855469 135.804688 259.058594 136.613281 260.210938 137.5 C 263.21875 139.808594 265.9375 142.429688 268.480469 145.234375 C 271.753906 148.835938 275.105469 152.359375 278.511719 155.835938 C 281.199219 158.570312 283.679688 161.496094 285.628906 164.820312 C 288.589844 169.855469 289.867188 175.320312 289.875 181.140625 C 289.882812 188.800781 288.980469 196.34375 286.71875 203.65625 C 283.3125 214.675781 280.070312 225.734375 276.9375 236.835938 C 275.800781 240.871094 274.265625 244.773438 272.285156 248.488281 C 271.675781 249.625 271.050781 250.765625 270.152344 251.714844 C 268.644531 253.308594 267.144531 253.019531 266.382812 250.941406 C 265.460938 248.433594 265.296875 245.785156 265.214844 243.148438 C 264.964844 235.441406 266.0625 227.867188 267.671875 220.367188 C 269.917969 209.886719 272.835938 199.59375 276.640625 189.566406 C 277.003906 188.605469 277.402344 187.660156 277.847656 186.558594 C 277.289062 186.59375 277.003906 186.894531 276.710938 187.121094 C 273.238281 189.832031 269.660156 192.382812 265.835938 194.574219 C 263.96875 195.644531 262.460938 197.136719 261.105469 198.785156 C 259.085938 201.230469 257.371094 203.871094 255.84375 206.640625 C 252.1875 213.277344 249.234375 220.21875 246.929688 227.429688 C 244.046875 236.445312 241.398438 245.527344 239.164062 254.730469 C 238.894531 255.847656 239.03125 256.609375 239.890625 257.464844 C 248.890625 266.425781 256.441406 276.511719 263.089844 287.308594 C 265.558594 291.316406 268.039062 295.320312 270.503906 299.328125 C 270.730469 299.703125 271.105469 300.03125 271.054688 300.597656 C 270.476562 300.40625 270.292969 299.898438 270.003906 299.511719 C 266.40625 294.707031 262.945312 289.804688 259.589844 284.824219 C 253.648438 276.003906 247.175781 267.617188 239.671875 260.0625 C 239.339844 259.730469 239.015625 259.394531 238.679688 259.078125 C 238.617188 259.019531 238.488281 259.03125 238.234375 258.976562 C 237.820312 260.816406 237.390625 262.65625 237 264.5 C 234.261719 277.351562 231.78125 290.25 229.835938 303.246094 C 228.78125 310.308594 227.894531 317.390625 227.464844 324.527344 C 227.382812 325.871094 227.355469 327.222656 226.992188 328.53125 C 226.785156 329.28125 226.953125 329.929688 227.34375 330.59375 C 228.664062 332.835938 229.714844 335.191406 230.238281 337.753906 C 230.421875 338.667969 230.574219 339.589844 230.4375 340.527344 C 230.339844 341.195312 230.035156 341.703125 229.355469 341.898438 C 228.742188 342.078125 228.242188 341.804688 227.824219 341.382812 C 227.300781 340.863281 226.96875 340.214844 226.664062 339.558594 C 225.617188 337.3125 225.226562 334.917969 225.179688 332.472656 C 225.160156 331.558594 224.921875 330.769531 224.515625 329.964844 C 222.183594 325.335938 219.480469 320.929688 216.527344 316.671875 C 210.558594 308.085938 204.972656 299.269531 200.089844 290.015625 C 198.644531 287.277344 197.328125 284.46875 195.941406 281.695312 C 195.710938 281.238281 195.558594 280.730469 195.140625 280.386719 C 194.816406 280.515625 194.703125 280.816406 194.550781 281.085938 C 188.027344 292.847656 181.191406 304.4375 174.898438 316.328125 C 171.070312 323.554688 167.5 330.902344 164.714844 338.609375 C 164.339844 339.648438 164.367188 340.542969 164.683594 341.585938 C 166.277344 346.828125 168.042969 352.027344 169.027344 357.4375 C 169.695312 361.109375 170.136719 364.804688 169.539062 368.546875 C 169.425781 369.269531 169.25 369.96875 168.933594 370.625 C 168.082031 372.386719 166.675781 372.8125 164.964844 371.832031 C 164.234375 371.414062 163.640625 370.839844 163.09375 370.214844 C 160.953125 367.761719 159.785156 364.863281 159.257812 361.691406 C 158.472656 356.964844 159.015625 352.300781 160.035156 347.675781 C 160.402344 346.011719 160.832031 344.355469 161.335938 342.730469 C 161.640625 341.734375 161.628906 340.894531 161.140625 339.929688 C 159.265625 336.242188 157.492188 332.503906 155.65625 328.800781 C 153.542969 324.539062 151.578125 320.203125 149.464844 315.941406 C 145.816406 308.570312 142.179688 301.1875 137.769531 294.226562 C 136.46875 292.171875 135.171875 290.113281 133.699219 288.171875 C 131.640625 285.460938 129.210938 283.175781 126.261719 281.453125 C 114.980469 274.871094 106.046875 265.75 98.15625 255.507812 C 96.199219 252.96875 94.265625 250.402344 92.636719 247.625 C 92.40625 247.226562 92.269531 246.828125 91.601562 247.203125 C 89.558594 248.363281 87.417969 248.125 85.308594 247.367188 C 84.226562 246.976562 83.253906 246.359375 82.441406 245.550781 C 79.949219 243.089844 78.300781 240.148438 77.550781 236.722656 C 77.082031 234.597656 77.640625 232.8125 79.371094 231.476562 C 80.1875 230.839844 80.21875 230.691406 79.511719 229.894531 C 78.824219 229.121094 78.117188 228.363281 77.398438 227.617188 C 74.582031 224.699219 74.199219 221.265625 75.296875 217.542969 C 75.515625 216.804688 75.871094 216.105469 76.195312 215.398438 C 77.011719 213.589844 78.425781 212.617188 80.40625 212.429688 C 81.273438 212.347656 82.136719 212.363281 83.113281 212.410156 C 83.035156 211.671875 82.601562 211.285156 82.277344 210.851562 C 81.292969 209.523438 80.238281 208.242188 79.292969 206.882812 C 78.242188 205.378906 78.042969 203.679688 78.730469 202 C 80.160156 198.507812 82.285156 195.589844 85.878906 193.9375 C 85.878906 193.351562 85.445312 192.933594 85.183594 192.453125 C 83.84375 189.972656 83.703125 187.453125 84.746094 184.828125 C 86.808594 179.636719 90.5625 176.804688 96.164062 176.46875 C 98.195312 176.347656 100.207031 176.40625 102.113281 177.226562 C 102.792969 177.523438 103.003906 177.238281 103.183594 176.617188 C 103.382812 175.9375 103.101562 175.402344 102.886719 174.828125 C 101.816406 171.957031 101.699219 169.085938 102.78125 166.179688 C 103.882812 163.214844 105.878906 161.207031 108.949219 160.339844 C 109.84375 160.085938 110.746094 159.84375 111.664062 159.703125 C 114.050781 159.332031 116.070312 160.246094 117.765625 161.800781 C 118.777344 162.726562 119.789062 163.085938 121.117188 162.835938 C 121.925781 162.683594 122.765625 162.730469 123.589844 162.636719 C 124.679688 162.519531 124.6875 162.5 124.679688 161.351562 C 124.671875 159.484375 124.769531 157.625 125.140625 155.792969 C 125.722656 152.910156 127.175781 151.492188 130.070312 150.953125 C 135.136719 150.011719 140.332031 152.347656 142.960938 156.75 C 143.648438 157.90625 144.269531 159.105469 144.738281 160.367188 C 147.441406 167.625 151.210938 174.359375 155.078125 181.019531 C 159.164062 188.046875 163.144531 195.113281 166.730469 202.410156 C 167.15625 203.277344 167.640625 204.113281 168.253906 205.257812 C 168.421875 203.953125 168.175781 203.023438 168.023438 202.089844 C 167.582031 199.277344 167.292969 196.445312 167.128906 193.605469 C 166.996094 191.304688 166.414062 189.125 165.679688 186.957031 C 164.15625 182.464844 163.324219 177.855469 163.351562 173.097656 C 163.394531 166.460938 165.464844 160.503906 169.324219 155.136719 C 169.5625 154.796875 169.8125 154.464844 170.09375 154.164062 C 171.257812 152.925781 172.371094 153.09375 173.132812 154.636719 C 173.429688 155.238281 173.628906 155.890625 173.859375 156.515625 C 175.332031 160.496094 176.613281 164.539062 177.820312 168.601562 C 178.582031 171.15625 179.636719 173.539062 181.222656 175.695312 C 183.917969 179.363281 185.371094 183.519531 186.042969 188 C 187.433594 197.316406 189.320312 206.527344 191.648438 215.65625 C 192.566406 219.261719 193.21875 222.9375 193.226562 226.691406 C 193.230469 230.171875 192.902344 233.625 192.335938 237.042969 C 190.976562 245.253906 190.539062 253.496094 191.253906 261.789062 C 191.664062 266.535156 193.03125 271.007812 195.035156 275.285156 C 195.554688 275.242188 195.625 274.828125 195.78125 274.539062 C 202.773438 261.734375 209.570312 248.828125 215.277344 235.382812 C 215.402344 235.09375 215.488281 234.789062 215.648438 234.527344 C 216.132812 233.753906 215.914062 233.125 215.433594 232.414062 C 212.234375 227.625 209.527344 222.570312 207.253906 217.28125 C 204.226562 210.234375 202.941406 202.835938 202.800781 195.210938 C 202.753906 192.722656 202.992188 190.25 203.703125 187.839844 C 204.011719 186.792969 204.429688 185.789062 205.140625 184.941406 C 206.398438 183.441406 208.023438 183.160156 209.714844 184.136719 C 210.769531 184.75 211.542969 185.652344 212.226562 186.636719 C 213.507812 188.480469 214.359375 190.53125 215.085938 192.640625 C 215.253906 193.121094 215.402344 193.613281 215.570312 194.144531 C 216.132812 193.8125 216.015625 193.304688 216.085938 192.882812 C 216.6875 189.046875 217.480469 185.25 218.875 181.613281 C 219.527344 179.917969 220.300781 178.285156 221.371094 176.808594 C 222.011719 175.917969 222.734375 175.117188 223.679688 174.535156 C 225.601562 173.347656 227.433594 173.773438 228.585938 175.710938 C 229.503906 177.253906 229.835938 178.988281 230.0625 180.738281 C 230.738281 185.96875 230.375 191.179688 229.585938 196.363281 C 227.75 208.402344 223.855469 219.851562 219.328125 231.101562 C 218.761719 232.503906 218.8125 233.464844 219.734375 234.71875 C 224.730469 241.554688 230.441406 247.753906 236.378906 253.75 C 236.484375 253.859375 236.628906 253.921875 236.742188 254 C 237.210938 253.847656 237.160156 253.4375 237.246094 253.105469 C 239.890625 242.675781 242.832031 232.328125 246.53125 222.21875 C 248.636719 216.476562 251.269531 210.976562 254.320312 205.671875 C 255.503906 203.605469 256.839844 201.640625 258.269531 199.730469 C 260.566406 196.664062 263.308594 194.144531 266.710938 192.3125 C 271.105469 189.949219 274.886719 186.691406 278.894531 183.757812 C 279.503906 183.316406 279.765625 182.609375 280.207031 182.042969 C 280.898438 181.152344 281.511719 180.90625 281.992188 181.300781 C 282.464844 181.695312 282.390625 182.402344 281.601562 183.179688 C 280.761719 184.007812 280.261719 185.007812 279.792969 186.042969 C 277.015625 192.246094 275.023438 198.714844 273.125 205.222656 C 270.921875 212.777344 268.933594 220.375 267.789062 228.171875 C 266.933594 234.019531 266.308594 239.882812 267.007812 245.796875 C 267.199219 247.421875 267.367188 249.066406 268.234375 250.65625 C 269.019531 250.203125 269.332031 249.488281 269.699219 248.84375 C 271.3125 245.996094 272.515625 242.96875 273.582031 239.886719 C 275.480469 234.40625 276.886719 228.78125 278.453125 223.210938 C 280.335938 216.539062 282.632812 210 284.566406 203.339844 C 286.902344 195.28125 288.007812 187.066406 287.582031 178.65625 C 287.300781 173.132812 285.296875 168.289062 281.996094 163.945312 C 280.242188 161.640625 278.304688 159.476562 276.214844 157.457031 C 272.863281 154.222656 269.664062 150.835938 266.566406 147.355469 C 264.152344 144.648438 261.65625 142.027344 258.828125 139.742188 C 258.382812 139.386719 257.9375 139.03125 257.488281 138.6875 C 255.019531 136.792969 252.328125 136.273438 249.300781 137.164062 C 246.039062 138.125 243.023438 139.535156 240.273438 141.53125 C 236.128906 144.542969 231.898438 147.433594 227.601562 150.222656 C 225.386719 151.660156 223.140625 153.046875 220.808594 154.285156 C 219.898438 154.769531 218.953125 155.199219 218.003906 155.605469 C 214.320312 157.183594 210.917969 156.507812 207.746094 154.257812 C 205.445312 152.625 203.949219 150.339844 202.714844 147.859375 C 201.929688 146.277344 201.410156 144.59375 200.742188 142.96875 C 198.9375 138.605469 198.296875 139.152344 195.125 139.175781 C 192.777344 139.191406 190.617188 138.796875 188.722656 137.292969 C 187.035156 135.949219 186.179688 134.335938 186.726562 132.144531 C 186.777344 131.945312 186.824219 131.738281 186.835938 131.535156 C 186.949219 130.277344 186.597656 129.746094 185.367188 129.371094 C 184.132812 128.996094 182.890625 128.628906 181.648438 128.28125 C 178.410156 127.382812 176.773438 125.164062 176.371094 121.921875 C 176.210938 120.636719 176.007812 119.355469 176.03125 118.054688 C 176.050781 117.066406 175.902344 116.09375 175.730469 115.125 C 175.394531 113.253906 174.570312 112.515625 172.675781 112.507812 C 170.652344 112.5 168.65625 112.8125 166.679688 113.234375 C 164.351562 113.730469 162.023438 114.226562 159.652344 114.46875 C 158.601562 114.578125 157.582031 114.460938 156.621094 114.019531 C 154.734375 113.148438 154.046875 111.527344 154.09375 109.585938 C 154.152344 106.894531 154.320312 104.207031 154.453125 101.523438 C 154.726562 95.835938 154.992188 90.144531 154.496094 84.460938 C 154.191406 80.941406 153.246094 77.546875 151.941406 74.265625 C 150.410156 70.414062 148.523438 66.726562 146.613281 63.058594 C 144.773438 59.523438 142.914062 56.003906 141.078125 52.46875 C 136.710938 44.0625 134.28125 35.054688 132.878906 25.742188 C 132.273438 21.695312 131.851562 17.628906 131.871094 13.53125 C 131.871094 12.964844 131.894531 12.390625 131.964844 11.832031 C 132.015625 11.464844 132.21875 11.113281 132.628906 11.0625 C 133.042969 11.015625 133.277344 11.332031 133.421875 11.679688 C 134.007812 13.0625 134.566406 14.449219 135.007812 15.886719 C 136.933594 22.152344 139.949219 27.824219 144.347656 32.710938 C 148.820312 37.683594 154.027344 41.582031 160.496094 43.597656 C 164.195312 44.753906 167.988281 45.09375 171.839844 44.945312 C 176.820312 44.753906 181.707031 43.84375 186.613281 43.082031 C 190.652344 42.453125 194.703125 41.902344 198.808594 41.988281 C 202.828125 42.066406 206.734375 42.714844 210.394531 44.476562 C 212.230469 45.363281 213.894531 46.492188 215.277344 48 C 217.84375 50.792969 218.59375 53.996094 217.449219 57.628906 C 216.917969 59.316406 216.125 60.882812 215.265625 62.421875 C 213.835938 65 212.351562 67.550781 210.984375 70.164062 C 209.519531 72.972656 208.433594 75.921875 207.90625 79.070312 C 206.253906 89.015625 213.03125 95.109375 220.585938 96.351562 C 223.890625 96.898438 227.082031 96.386719 230.25 95.53125 C 234.199219 94.464844 237.976562 92.886719 241.832031 91.546875 C 246.832031 89.816406 251.917969 88.5 257.183594 87.828125 C 264.148438 86.945312 270.996094 87.652344 277.496094 90.140625 C 283.308594 92.363281 288.644531 95.515625 292.683594 100.535156 C 296.621094 105.425781 300.355469 110.429688 303.210938 116.042969 C 305.652344 120.839844 307.015625 125.984375 307.976562 131.238281 C 308.585938 134.539062 309.015625 137.878906 309.503906 141.203125 C 309.570312 141.65625 309.699219 142.121094 309.425781 142.894531 Z M 163.117188 336.910156 C 163.28125 336.597656 163.417969 336.382812 163.507812 336.152344 C 166.804688 327.363281 171.039062 319.015625 175.558594 310.808594 C 181.398438 300.207031 187.34375 289.65625 193.269531 279.101562 C 193.773438 278.207031 193.867188 277.492188 193.410156 276.527344 C 190.792969 271.058594 189.238281 265.308594 188.9375 259.21875 C 188.6875 254.039062 188.628906 248.878906 189.285156 243.722656 C 189.855469 239.257812 190.675781 234.828125 191.085938 230.34375 C 191.230469 228.746094 191.570312 227.132812 191.339844 225.550781 C 190.871094 222.378906 190.527344 219.1875 189.75 216.066406 C 187.5625 207.273438 186.019531 198.355469 184.675781 189.40625 C 183.933594 184.464844 182.386719 179.863281 179.402344 175.804688 C 178.066406 173.988281 177.257812 171.917969 176.640625 169.769531 C 175.375 165.398438 173.976562 161.070312 172.339844 156.820312 C 172.121094 156.253906 172.019531 155.617188 171.515625 155.191406 C 171.410156 155.242188 171.300781 155.273438 171.226562 155.339844 C 171.113281 155.4375 171.007812 155.554688 170.917969 155.683594 C 168.539062 159.105469 166.5625 162.734375 165.714844 166.859375 C 164.378906 173.355469 164.96875 179.742188 167.140625 185.964844 C 168.140625 188.824219 168.796875 191.710938 168.949219 194.738281 C 169.046875 196.800781 169.382812 198.847656 169.636719 200.902344 C 169.902344 203.050781 170.605469 205.144531 170.410156 207.351562 C 170.355469 207.972656 170.332031 208.589844 170.082031 209.171875 C 169.796875 209.824219 169.335938 209.933594 168.6875 209.707031 C 168.117188 209.507812 167.921875 209.035156 167.714844 208.570312 C 167.335938 207.722656 167.042969 206.832031 166.632812 205.996094 C 162.957031 198.519531 159.234375 191.082031 154.957031 183.914062 C 150.53125 176.5 146.179688 169.027344 143.023438 160.941406 C 142.425781 159.398438 141.609375 157.949219 140.628906 156.601562 C 139.882812 155.574219 138.96875 154.75 137.835938 154.195312 C 135.855469 153.226562 133.769531 152.699219 131.539062 152.789062 C 128.542969 152.917969 127.359375 153.972656 126.925781 156.941406 C 126.910156 157.042969 126.90625 157.148438 126.890625 157.25 C 126.105469 162.394531 127.003906 167.21875 129.472656 171.800781 C 130.933594 174.503906 132.652344 177 134.566406 179.394531 C 135.960938 181.128906 137.203125 182.980469 137.859375 185.15625 C 139.082031 189.230469 137.554688 193.789062 134.261719 195.867188 C 133.039062 196.640625 131.746094 196.976562 130.273438 196.691406 C 127.863281 196.226562 125.585938 195.398438 123.425781 194.273438 C 119.28125 192.121094 115.398438 189.546875 111.847656 186.507812 C 109.125 184.171875 106.65625 181.605469 104.726562 178.554688 C 104.59375 178.34375 104.496094 178.082031 104.082031 178.027344 C 103.503906 179.101562 102.507812 179.09375 101.457031 178.792969 C 99.527344 178.238281 97.589844 178.316406 95.613281 178.554688 C 91.34375 179.070312 88.667969 181.433594 87.257812 185.410156 C 86.519531 187.496094 86.644531 189.460938 87.757812 191.378906 C 89.070312 193.644531 90.71875 195.636719 92.738281 197.285156 C 95.625 199.644531 98.699219 201.746094 102.035156 203.449219 C 103.882812 204.386719 105.695312 205.375 107.539062 206.316406 C 109.917969 207.535156 112.453125 208.222656 115.117188 208.386719 C 116.214844 208.457031 116.25 208.375 116.277344 207.269531 C 116.289062 206.753906 116.246094 206.238281 116.214844 205.722656 C 116.089844 203.390625 115.492188 201.117188 115.289062 198.8125 C 115.125 196.941406 114.335938 195.761719 112.867188 194.640625 C 109.769531 192.285156 107.476562 189.21875 106.003906 185.589844 C 105.574219 184.527344 105.683594 183.742188 106.242188 183.46875 C 107.105469 183.039062 107.59375 183.730469 108.066406 184.234375 C 109.453125 185.699219 110.828125 187.179688 112.152344 188.703125 C 113.582031 190.34375 114.878906 192.085938 115.464844 194.242188 C 115.601562 194.746094 116.070312 194.925781 116.457031 195.171875 C 117.675781 195.957031 118.898438 196.734375 119.992188 197.695312 C 121.527344 199.039062 122.835938 200.558594 123.558594 202.507812 C 124.3125 204.535156 123.941406 206.367188 122.570312 208.015625 C 121.605469 209.175781 120.34375 209.875 118.910156 210.222656 C 117.5 210.5625 117.4375 210.417969 117.363281 212.179688 C 117.277344 214.148438 116.902344 216.074219 116.453125 217.996094 C 115.566406 221.738281 113.292969 224.214844 109.707031 225.476562 C 108.148438 226.023438 106.554688 226.488281 104.957031 226.910156 C 104.234375 227.101562 103.753906 227.351562 103.644531 228.167969 C 103.457031 229.53125 102.789062 230.707031 102.019531 231.824219 C 100.398438 234.175781 98.566406 236.34375 96.445312 238.265625 C 95.527344 239.101562 94.613281 239.945312 93.777344 240.863281 C 92.050781 242.761719 91.972656 244.8125 93.457031 246.894531 C 95.53125 249.804688 97.828125 252.546875 100.136719 255.265625 C 108.210938 264.769531 116.875 273.621094 127.84375 279.875 C 130.476562 281.378906 132.691406 283.402344 134.652344 285.703125 C 136.03125 287.324219 137.242188 289.0625 138.453125 290.804688 C 144.976562 300.195312 149.929688 310.453125 154.808594 320.738281 C 156.738281 324.800781 158.835938 328.773438 160.761719 332.839844 C 161.417969 334.21875 162.292969 335.5 163.117188 336.914062 Z M 217.496094 235.859375 C 217.117188 236.230469 217 236.742188 216.800781 237.207031 C 214.835938 241.769531 212.746094 246.269531 210.566406 250.734375 C 206.277344 259.519531 201.675781 268.140625 196.941406 276.695312 C 196.519531 277.453125 196.289062 278.085938 196.746094 278.980469 C 202.203125 289.683594 207.9375 300.214844 214.859375 310.0625 C 218.160156 314.761719 221.492188 319.4375 224.316406 324.453125 C 224.4375 324.664062 224.503906 324.945312 224.972656 324.933594 C 225.003906 324.738281 225.058594 324.503906 225.074219 324.269531 C 225.441406 318.167969 226.15625 312.109375 227.03125 306.066406 C 229.308594 290.34375 232.355469 274.769531 235.789062 259.265625 C 236.359375 256.691406 236.386719 256.6875 234.570312 254.855469 C 228.765625 249.019531 223.082031 243.070312 218.1875 236.421875 C 218.011719 236.179688 217.875 235.867188 217.492188 235.855469 Z M 217.171875 230.613281 C 217.328125 230.292969 217.433594 230.113281 217.507812 229.925781 C 220.714844 221.90625 223.5625 213.761719 225.625 205.367188 C 227.421875 198.0625 228.632812 190.679688 228.199219 183.113281 C 228.09375 181.296875 227.871094 179.503906 227.253906 177.785156 C 226.484375 175.671875 225.441406 175.480469 223.90625 177.140625 C 223.34375 177.75 222.898438 178.449219 222.496094 179.171875 C 221.890625 180.257812 221.410156 181.402344 220.996094 182.574219 C 219.734375 186.148438 219.066406 189.859375 218.542969 193.601562 C 218.015625 197.347656 217.871094 201.113281 217.726562 204.886719 C 217.703125 205.453125 217.671875 206.03125 217.519531 206.570312 C 217.371094 207.109375 216.921875 207.414062 216.347656 207.40625 C 215.839844 207.398438 215.4375 207.125 215.257812 206.660156 C 215.113281 206.28125 215.058594 205.859375 215.015625 205.449219 C 214.84375 204.011719 214.722656 202.570312 214.527344 201.132812 C 214.027344 197.433594 213.265625 193.800781 211.710938 190.375 C 211.09375 189.003906 210.378906 187.675781 209.289062 186.613281 C 207.992188 185.351562 207.105469 185.492188 206.277344 187.105469 C 205.609375 188.410156 205.328125 189.835938 205.179688 191.28125 C 204.5625 197.277344 205.332031 203.164062 206.832031 208.945312 C 208.828125 216.628906 212.570312 223.539062 216.734375 230.234375 C 216.808594 230.359375 216.957031 230.429688 217.171875 230.609375 Z M 126.539062 170.320312 C 124.761719 171.324219 124.183594 171.253906 122.800781 169.847656 C 122.1875 169.21875 121.640625 168.523438 121.089844 167.84375 C 120.273438 166.835938 119.484375 165.8125 118.679688 164.800781 C 118.308594 164.332031 117.917969 164.054688 117.230469 164.164062 C 113.84375 164.714844 110.730469 165.871094 108.097656 168.128906 C 106.496094 169.503906 105.332031 171.167969 104.730469 173.234375 C 104.402344 174.363281 104.503906 175.320312 105.089844 176.339844 C 106.390625 178.597656 107.941406 180.652344 109.765625 182.507812 C 114.054688 186.867188 119.03125 190.273438 124.445312 193.066406 C 126.289062 194.015625 128.242188 194.699219 130.28125 195.117188 C 131.664062 195.40625 132.828125 195.035156 133.871094 194.125 C 134.675781 193.425781 135.234375 192.570312 135.601562 191.585938 C 136.601562 188.910156 136.214844 186.367188 134.628906 184.050781 C 131.625 179.65625 128.453125 175.371094 126.542969 170.324219 Z M 113.398438 210.660156 C 113.460938 212.421875 113.042969 212.992188 111.417969 213.335938 C 109.792969 213.683594 108.136719 213.699219 106.480469 213.710938 C 102.914062 213.734375 99.351562 213.703125 95.785156 213.972656 C 92.796875 214.199219 89.820312 214.695312 86.808594 214.382812 C 86.550781 214.355469 86.253906 214.351562 86.085938 214.570312 C 84.921875 216.089844 83.191406 215.980469 81.566406 216.144531 C 80.898438 216.210938 80.238281 216.304688 79.578125 216.429688 C 78.058594 216.722656 77.25 217.691406 76.949219 219.132812 C 76.644531 220.570312 76.6875 222 77.105469 223.425781 C 77.679688 225.378906 78.910156 226.617188 80.921875 227.082031 C 83.566406 227.695312 86.222656 227.882812 88.921875 227.484375 C 93.269531 226.839844 97.566406 225.933594 101.878906 225.125 C 104.261719 224.675781 106.605469 224.023438 108.925781 223.292969 C 112.148438 222.28125 114.210938 220.171875 115.054688 216.894531 C 115.363281 215.691406 115.648438 214.492188 115.835938 213.257812 C 116.308594 210.179688 116.289062 210.703125 113.390625 210.660156 Z M 101.996094 211.984375 C 104.378906 212.152344 106.707031 212.148438 109.03125 212.144531 C 109.867188 212.144531 110.679688 212.035156 111.484375 211.816406 C 111.960938 211.691406 112.03125 211.386719 111.722656 211.011719 C 111.101562 210.265625 110.273438 209.921875 109.363281 209.621094 C 102.113281 207.183594 95.789062 203.128906 89.898438 198.335938 C 89.339844 197.882812 88.859375 197.328125 88.363281 196.800781 C 87.050781 195.425781 86.285156 195.335938 84.761719 196.46875 C 83.023438 197.761719 81.839844 199.511719 80.800781 201.378906 C 79.78125 203.214844 79.859375 204.902344 81.277344 206.519531 C 82.398438 207.800781 83.707031 209.011719 84.484375 210.492188 C 85.578125 212.582031 87.191406 212.90625 89.210938 212.667969 C 89.621094 212.625 90.035156 212.601562 90.449219 212.570312 C 94.3125 212.273438 98.175781 211.898438 102.003906 211.984375 Z M 81.355469 229.40625 C 82.21875 231.222656 82.21875 231.507812 80.894531 232.707031 C 79.714844 233.773438 79.386719 234.996094 79.824219 236.480469 C 80.617188 239.160156 81.96875 241.523438 83.933594 243.507812 C 85.386719 244.976562 87.171875 245.695312 89.273438 245.488281 C 90.308594 245.382812 90.464844 245.289062 90.335938 244.226562 C 90.144531 242.652344 90.738281 241.40625 91.699219 240.253906 C 92.628906 239.132812 93.710938 238.167969 94.808594 237.222656 C 97.132812 235.21875 99.152344 232.9375 100.882812 230.40625 C 101.429688 229.613281 101.921875 228.792969 102.046875 227.625 C 100.335938 227.917969 98.773438 228.203125 97.203125 228.449219 C 93.886719 228.957031 90.597656 229.707031 87.226562 229.855469 C 85.3125 229.941406 83.425781 229.660156 81.363281 229.414062 Z M 162.949219 344.5 C 162.90625 344.550781 162.800781 344.621094 162.777344 344.707031 C 161.53125 349.207031 160.628906 353.765625 160.824219 358.460938 C 160.960938 361.757812 161.683594 364.914062 163.570312 367.707031 C 164.183594 368.609375 164.855469 369.46875 165.78125 370.070312 C 166.507812 370.546875 166.914062 370.433594 167.253906 369.660156 C 167.457031 369.195312 167.574219 368.679688 167.660156 368.171875 C 168.210938 365.074219 167.886719 361.992188 167.472656 358.910156 C 166.929688 354.90625 165.847656 351.019531 164.878906 347.109375 C 164.601562 345.984375 164.375 344.886719 162.949219 344.5 Z M 103.847656 172.789062 C 106.246094 167.054688 111.066406 164.605469 116.699219 163.21875 C 115.492188 161.742188 113.921875 161.019531 112.195312 161.191406 C 110.488281 161.359375 108.859375 161.839844 107.34375 162.65625 C 106.515625 163.105469 105.808594 163.71875 105.285156 164.496094 C 103.609375 167.007812 102.851562 169.703125 103.84375 172.785156 Z M 116.183594 197.101562 C 115.957031 197.78125 116.085938 198.234375 116.171875 198.679688 C 116.714844 201.460938 117.398438 204.226562 117.425781 207.082031 C 117.425781 207.285156 117.476562 207.492188 117.511719 207.695312 C 117.5625 207.996094 117.742188 208.109375 118.046875 208.097656 C 120.289062 208.035156 122.273438 205.566406 121.632812 203.441406 C 120.773438 200.574219 118.613281 198.789062 116.183594 197.097656 Z M 120.175781 164.050781 C 121.507812 165.898438 122.683594 167.628906 124.144531 169.132812 C 124.796875 169.804688 125.203125 169.675781 125.363281 168.773438 C 125.632812 167.25 125.121094 165.832031 124.628906 164.429688 C 124.496094 164.046875 124.148438 163.738281 123.671875 163.769531 C 122.570312 163.847656 121.46875 163.941406 120.179688 164.050781 Z M 107.777344 185.917969 C 109.191406 188.972656 111.265625 191.46875 114.046875 193.363281 C 112.953125 190.050781 110.046875 188.246094 107.777344 185.917969 Z M 107.777344 185.917969 " fill-opacity="1" fill-rule="nonzero"/></g></svg>