<svg xmlns="http://www.w3.org/2000/svg" xmlns:xlink="http://www.w3.org/1999/xlink" width="96" zoomAndPan="magnify" viewBox="0 0 72 72" height="96" preserveAspectRatio="xMidYMid meet" version="1.0"><defs><clipPath id="0f80285aa2"><path d="M 60 3.46875 L 64 3.46875 L 64 28 L 60 28 Z M 60 3.46875 " clip-rule="nonzero"/></clipPath><clipPath id="da19568a1d"><path d="M 61 3.46875 L 68.914062 3.46875 L 68.914062 15 L 61 15 Z M 61 3.46875 " clip-rule="nonzero"/></clipPath></defs><rect x="-7.2" width="86.4" fill="#ffffff" y="-7.2" height="86.4" fill-opacity="1"/><rect x="-7.2" width="86.4" fill="#ffffff" y="-7.2" height="86.4" fill-opacity="1"/><path fill="#437b58" d="M 21.433594 56.53125 C 21.648438 59.53125 19.933594 62.15625 15.933594 63.8125 C 11.929688 65.46875 7.894531 64.890625 6.917969 62.527344 C 5.9375 60.164062 8.390625 56.90625 12.390625 55.25 C 16.386719 53.59375 21.253906 53.980469 21.433594 56.53125 " fill-opacity="1" fill-rule="nonzero"/><path fill="#437b58" d="M 21.433594 56.53125 L 19.296875 56.53125 L 19.296875 32.808594 L 21.433594 32.808594 L 21.433594 56.53125 " fill-opacity="1" fill-rule="nonzero"/><path fill="#437b58" d="M 42.703125 53.160156 C 42.90625 55.746094 41.054688 58.300781 37.054688 59.957031 C 33.054688 61.609375 29.019531 61.039062 28.039062 58.671875 C 27.0625 56.308594 29.507812 53.046875 33.511719 51.394531 C 37.511719 49.738281 42.5 50.609375 42.703125 53.160156 " fill-opacity="1" fill-rule="nonzero"/><path fill="#437b58" d="M 42.703125 53.160156 L 40.566406 53.160156 L 40.566406 29.433594 L 42.703125 29.433594 L 42.703125 53.160156 " fill-opacity="1" fill-rule="nonzero"/><path fill="#437b58" d="M 42.703125 34.75 L 19.300781 40.554688 L 19.300781 28.691406 L 42.703125 22.886719 L 42.703125 34.75 " fill-opacity="1" fill-rule="nonzero"/><path fill="#437b58" d="M 63.113281 27.191406 C 63.328125 30.1875 61.609375 32.8125 57.609375 34.46875 C 53.605469 36.125 49.570312 35.550781 48.59375 33.183594 C 47.617188 30.820312 50.066406 27.5625 54.066406 25.910156 C 58.066406 24.25 62.929688 24.636719 63.113281 27.191406 " fill-opacity="1" fill-rule="nonzero"/><g clip-path="url(#0f80285aa2)"><path fill="#437b58" d="M 63.113281 27.191406 L 60.972656 27.191406 L 60.972656 3.464844 L 63.113281 3.464844 L 63.113281 27.191406 " fill-opacity="1" fill-rule="nonzero"/></g><g clip-path="url(#da19568a1d)"><path fill="#437b58" d="M 61.980469 3.5 C 61.980469 3.5 62.730469 3.472656 63.113281 3.464844 C 64.769531 3.464844 65.484375 4.664062 65.710938 5.144531 C 65.949219 5.625 66.0625 6.125 66.109375 6.601562 C 66.152344 7.074219 66.144531 7.539062 66.121094 7.992188 C 66.085938 8.417969 66.050781 8.855469 66.015625 9.289062 C 65.996094 9.683594 66 10.042969 66.039062 10.4375 C 66.078125 10.816406 66.144531 11.1875 66.25 11.523438 C 66.347656 11.863281 66.480469 12.164062 66.636719 12.410156 C 66.785156 12.671875 66.976562 12.832031 67.148438 12.972656 C 67.332031 13.082031 67.515625 13.15625 67.695312 13.175781 C 67.871094 13.199219 68.042969 13.175781 68.1875 13.15625 C 68.332031 13.136719 68.453125 13.078125 68.53125 13.0625 C 68.609375 13.039062 68.652344 13.027344 68.652344 13.027344 L 69.121094 14.09375 C 69.121094 14.09375 69.0625 14.117188 68.953125 14.164062 C 68.835938 14.199219 68.683594 14.28125 68.457031 14.332031 C 68.226562 14.390625 67.945312 14.445312 67.597656 14.425781 C 67.25 14.414062 66.851562 14.308594 66.46875 14.101562 C 66.105469 13.878906 65.75 13.574219 65.496094 13.207031 C 65.222656 12.84375 65.011719 12.433594 64.851562 12 C 64.6875 11.570312 64.574219 11.117188 64.492188 10.65625 C 64.414062 10.207031 64.367188 9.699219 64.367188 9.230469 C 64.367188 8.796875 64.371094 8.367188 64.378906 7.941406 C 64.371094 7.546875 64.347656 7.167969 64.296875 6.835938 C 64.238281 6.507812 64.140625 6.242188 64.03125 6.0625 C 63.925781 5.871094 63.800781 5.800781 63.65625 5.726562 C 63.523438 5.648438 63.332031 5.613281 63.152344 5.597656 C 62.976562 5.5625 62.820312 5.597656 62.695312 5.582031 C 62.320312 5.613281 62.105469 5.636719 62.105469 5.636719 L 61.980469 3.5 " fill-opacity="1" fill-rule="nonzero"/></g></svg>